<svg version="1.1" id="Layer_1" xmlns="http://www.w3.org/2000/svg" xmlns:xlink="http://www.w3.org/1999/xlink" x="0px" y="0px" viewBox="0 0 199.9 45.6" style="enable-background:new 0 0 199.9 45.6;" xml:space="preserve">
 <style type="text/css">
  .st0{fill:#E71D1D;}
 </style>
 <g>
  <path class="st0" d="M0,13.4C0,4.5,5.5,0,15.7,0h29.8v19h-2.4c-1-11-5.9-15.5-15.9-15.5H21c-4.8,0-7.1,2.4-7.1,7.1v24.5
		c0,4.7,2.3,7.1,7.1,7.1h6.2c9.8,0,14.9-4.8,15.9-16.2h2.4v19.6H15.7C5.5,45.6,0,41.1,0,32.2L0,13.4L0,13.4z">
  </path>
  <path class="st0" d="M97.5,0v45.6H85.3L55.5,9.3v16.3c0,12,4.8,16.5,15.7,17.7v2.3H51.9V0h14l28,34.1V19.8
		C93.8,7.9,89,3.3,78.4,2.3V0L97.5,0L97.5,0z">
  </path>
  <path class="st0" d="M103.9,0h45.6v19H147c-1-11.1-5.9-15.6-15.9-15.6h-13.7v17.1h4.6c7.8,0,11.1-3.5,11.8-10.9h2.5v25.1h-2.5
		c-0.8-7.5-4.1-11-11.8-11h-4.6v18.6h13.7c9.8,0,14.9-4.8,15.9-16.2h2.4v19.6h-45.6V0z">
  </path>
  <path class="st0" d="M199.9,0v19h-2.4C196.4,8.5,192,3.7,183.8,2.8v32.1c0,5.6,2,7.8,9.2,8.3v2.5h-31.8v-2.5
		c7.2-0.5,9.2-2.7,9.2-8.3V2.8c-8.2,0.9-12.6,5.7-13.6,16.2h-2.4V0H199.9z">
  </path>
 </g>
</svg>