<svg version="1.1" id="svg38" xmlns:cc="http://creativecommons.org/ns#" xmlns:dc="http://purl.org/dc/elements/1.1/" xmlns:rdf="http://www.w3.org/1999/02/22-rdf-syntax-ns#" xmlns:svg="http://www.w3.org/2000/svg" xmlns="http://www.w3.org/2000/svg" xmlns:xlink="http://www.w3.org/1999/xlink" x="0px" y="0px" viewBox="0 0 141 141" style="enable-background:new 0 0 141 141;" xml:space="preserve">
 <style type="text/css">
  .st0{fill:#F00F32;}
	.st1{fill:#FFFFFF;}
 </style>
 <g>
  <rect class="st0" width="141" height="141">
  </rect>
  <g>
   <path id="path15_1_" class="st1" d="M83.4,18c5-2,10.4-2.6,15.8-2.6c3.5,0,7.1,0.3,10.6,1.2c2.8,0.7,5.5,1.9,7.7,3.7
			c1.9,1.5,3.4,3.6,4.4,5.9c1.3,2.9,1.7,6.1,1.7,9.2c0,8.1,0,16.1,0,24.2c-7.2,0-14.4,0-21.6,0c-0.1-3.5,0-7,0-10.5
			c0-4.6,0-9.1,0-13.7c0-1.2,0-2.5-0.8-3.4c-0.7-0.9-2-1.1-3.1-1c-1,0-2.1,0.4-2.6,1.3c-0.5,0.7-0.6,1.6-0.6,2.5
			c0,23.9,0,47.7,0,71.6c0,1,0.2,2.2,1,2.9c0.8,0.8,2,0.9,3.1,0.8c1.1,0,2.2-0.6,2.7-1.6c0.4-1,0.4-2.1,0.4-3.2c0-8.9,0-17.8,0-26.7
			c7.2,0,14.4,0,21.6,0c0,8.8,0,17.6,0,26.4c0,3-0.3,6-1.4,8.9c-1,2.7-2.6,5.1-4.8,6.9c-2.3,1.9-5.1,3.1-7.9,3.8
			c-3.6,0.9-7.4,1.2-11.1,1.1c-3.9-0.1-7.7-0.4-11.5-1.4c-3.5-1-6.9-2.5-9.5-5c-1.7-1.6-3-3.5-3.8-5.6c-1.1-2.8-1.6-5.8-1.5-8.9
			c0-22.7,0-45.4,0-68.2c0-2,0.1-4,0.5-5.9c0.6-3.1,2.1-6.1,4.3-8.3C78.7,20.4,81,19,83.4,18L83.4,18z">
   </path>
   <path id="path17_1_" class="st1" d="M17.4,15.8c0-0.1,0.1-0.3,0.1-0.3c9.5,0,19,0,28.4,0c3.7-0.1,7.5,0.3,11.1,1.4
			c2.5,0.8,4.9,2.2,6.7,4.2c2.4,2.5,3.7,6,4.3,9.4c0.4,2.1,0.4,4.3,0.4,6.5c0,8.1,0,16.1,0,24.2c0,3-0.1,6-0.8,8.9
			c-0.7,2.9-2.1,5.7-4.2,7.8c-1.3,1.3-2.9,2.3-4.5,3.1c-2.4,1.1-5,1.7-7.7,2c-2.5,0.3-5.1,0.2-7.6,0.2c-1.1,0-2.1,0-3.2,0
			c-0.1,2.1,0,4.2,0,6.3c0,12.1,0,24.1,0,36.2c-7.7,0-15.3,0-23,0C17.4,89,17.4,52.4,17.4,15.8 M40.4,31.3c0,3.6,0,7.2,0,10.7
			c0,8.4,0,16.8,0,25.1c1,0,1.9,0,2.8-0.2c1.4-0.2,2.9-0.8,3.7-2.1c0.9-1.4,0.9-3.1,0.9-4.6c0-7.2,0-14.5,0-21.7
			c0-1.2,0-2.3-0.2-3.5c-0.3-1.1-0.9-2.2-1.9-2.8C44.1,31.4,42.2,31.3,40.4,31.3z">
   </path>
  </g>
 </g>
</svg>